<?xml version="1.0" encoding="UTF-8"?>
<svg width="252px" height="36px" viewBox="0 0 252 36" version="1.1" xmlns="http://www.w3.org/2000/svg" xmlns:xlink="http://www.w3.org/1999/xlink">
    <title>LOGO</title>
    <defs>
        <polygon id="path-1" points="1.56319402e-13 34.9688163 251.338612 34.9688163 251.338612 0.0150204082 1.56319402e-13 0.0150204082"></polygon>
        <path d="M17.461551,-9.91207116e-13 C16.0173061,0.00195918367 14.5498776,0.184326531 13.0870204,0.564081633 L13.0870204,0.564081633 C5.23559184,2.60212245 0.0225306122,9.66514286 8.8817842e-15,17.4132245 L8.8817842e-15,17.4132245 L8.8817842e-15,17.5155918 C0.00424489796,18.9524898 0.186938776,20.4117551 0.564734694,21.8666122 L0.564734694,21.8666122 C2.60506122,29.7266939 9.68408163,34.9425306 17.4421224,34.9537959 L17.4421224,34.9537959 L17.4966531,34.9537959 C18.9405714,34.9513469 20.4052245,34.7686531 21.8675918,34.3890612 L21.8675918,34.3890612 C24.4096327,33.7291429 26.6739592,32.5412245 28.576,30.9750204 L28.576,30.9750204 L24.2365714,25.7075918 C23.0786939,26.659102 21.700898,27.380898 20.1549388,27.7823673 L20.1549388,27.7823673 C14.4636735,29.2595918 8.65240816,25.8435918 7.17485714,20.1523265 L7.17485714,20.1523265 C5.69763265,14.460898 9.11363265,8.64963265 14.804898,7.1722449 L14.804898,7.1722449 C16.365551,6.76718367 17.9348571,6.73061224 19.4218776,7.00767347 L19.4218776,7.00767347 L20.6581224,0.292734694 C19.6261224,0.100897959 18.5696327,0.000979591836 17.5004082,-9.91207116e-13 L17.5004082,-9.91207116e-13 L17.461551,-9.91207116e-13 Z" id="path-3"></path>
        <linearGradient x1="71.4226718%" y1="43.4618468%" x2="23.7244544%" y2="65.7909737%" id="linearGradient-5">
            <stop stop-color="#00BAFF" offset="0%"></stop>
            <stop stop-color="#0B79FF" offset="100%"></stop>
        </linearGradient>
        <polygon id="path-6" points="1.56319402e-13 34.9537959 251.338612 34.9537959 251.338612 -9.91207116e-13 1.56319402e-13 -9.91207116e-13"></polygon>
    </defs>
    <g id="Page1" stroke="none" stroke-width="1" fill="none" fill-rule="evenodd">
        <g id="初始-未登录" transform="translate(-64.000000, -18.000000)">
            <g id="LOGO" transform="translate(64.000000, 18.000000)">
                <g id="Group-23">
                    <polygon id="Fill-1" fill="#C1C1C1" points="147.656327 28.2703673 148.857469 28.2703673 148.857469 8.33028571 147.656327 8.33028571"></polygon>
                    <path d="M169.840098,15.5265306 C169.840098,15.708898 169.817241,15.8685714 169.817241,16.0280816 L175.789812,16.0280816 L175.789812,10.5570612 L169.840098,10.5570612 L169.840098,15.5265306 Z M181.602873,8.4597551 L181.602873,10.5570612 L177.955527,10.5570612 L177.955527,16.0280816 L182.765649,16.0280816 L182.765649,18.1253878 L177.955527,18.1253878 L177.955527,27.9960816 L175.789812,27.9960816 L175.789812,18.1253878 L169.680424,18.1253878 C169.452669,20.4050612 169.019527,22.2971429 168.335445,23.8243265 C167.469322,25.7392653 166.01022,27.2210612 163.981486,28.2468571 L162.818873,26.4231837 C164.642547,25.3518367 165.896424,23.9841633 166.557486,22.3426939 C166.990629,21.1572245 167.286792,19.7438367 167.469322,18.1253878 L162.454139,18.1253878 L162.454139,16.0280816 L167.628833,16.0280816 C167.628833,15.8457143 167.65169,15.6633469 167.65169,15.5265306 L167.65169,10.5570612 L163.639445,10.5570612 L163.639445,8.4597551 L181.602873,8.4597551 Z" id="Fill-2" fill="#555555"></path>
                    <path d="M197.469894,14.2498939 C198.108098,16.438302 198.905976,18.376098 199.840669,20.0629551 C200.912016,17.9429551 201.52769,15.4580571 201.687037,12.6314449 L198.176506,12.6314449 C197.948751,13.2014041 197.720506,13.7485061 197.469894,14.2498939 L197.469894,14.2498939 Z M195.19022,17.7377306 L193.867935,16.1192816 C195.623363,13.8853224 196.808833,10.9217306 197.447037,7.20597551 L199.567037,7.5707102 C199.384833,8.61936327 199.156751,9.59960816 198.883282,10.5341388 L205.243445,10.5341388 L205.243445,12.6314449 L203.716098,12.6314449 C203.533567,16.3245061 202.690302,19.4929959 201.139935,22.0918531 C202.530629,24.0067918 204.171935,25.4885878 206.064016,26.5372408 L204.833159,28.3609143 C202.91822,27.2894041 201.276751,25.784751 199.908914,23.8699755 C198.518547,25.6023837 196.808833,27.0386286 194.757241,28.224098 L193.526057,26.240751 C195.668914,25.1465469 197.401486,23.7104653 198.678057,21.9778939 C197.720506,20.3365878 196.899935,18.4673633 196.238873,16.3929143 C195.896996,16.8716082 195.554955,17.3276082 195.19022,17.7377306 L195.19022,17.7377306 Z M189.285894,10.5116082 C188.875608,9.50834286 188.442465,8.5509551 187.941078,7.61626122 L190.03822,7.04630204 C190.630873,8.32303673 191.109731,9.4629551 191.474302,10.5116082 L194.757241,10.5116082 L194.757241,12.5858939 L189.400016,12.5858939 L189.400016,14.4324245 C189.400016,14.7971592 189.377322,15.1390367 189.377322,15.4810776 L193.731282,15.4810776 C193.731282,21.1800163 193.617159,24.6907102 193.412098,26.0128327 C193.184016,27.3349551 192.203935,27.9960163 190.471363,27.9960163 C190.152343,27.9960163 189.627935,27.9506286 188.852914,27.8822204 L188.37422,26.0128327 C189.035282,26.0812408 189.627935,26.1267918 190.152343,26.1267918 C190.881649,26.1267918 191.314955,25.7622204 191.451771,25.0325878 C191.588588,24.3031184 191.656996,21.7726694 191.679527,17.4871184 L189.285894,17.4871184 C188.966873,22.2742204 188.009322,25.8531592 186.368016,28.269649 L184.681159,26.7878531 C186.436424,24.2347102 187.325567,20.1086694 187.371118,14.4324245 L187.371118,12.5858939 L185.182547,12.5858939 L185.182547,10.5116082 L189.285894,10.5116082 Z" id="Fill-4" fill="#555555"></path>
                    <path d="M226.421584,12.1528 C225.760522,13.9080653 224.8944,15.6179429 223.845747,17.3046367 L221.885094,16.3015347 C222.956441,14.5692898 223.800033,12.8822694 224.4384,11.2181061 L226.421584,12.1528 Z M214.521829,16.4156571 L212.493094,17.4187592 C211.740767,15.5036571 210.94289,13.7941061 210.099461,12.2896163 L212.128359,11.3093714 C212.948931,12.8594122 213.746808,14.5462694 214.521829,16.4156571 L214.521829,16.4156571 Z M227.492931,8.11786122 L227.492931,10.2378612 L219.195135,10.2378612 L219.195135,18.3077388 L228.359216,18.3077388 L228.359216,20.3821878 L219.195135,20.3821878 L219.195135,28.269698 L217.006727,28.269698 L217.006727,20.3821878 L208.025012,20.3821878 L208.025012,18.3077388 L217.006727,18.3077388 L217.006727,10.2378612 L208.936849,10.2378612 L208.936849,8.11786122 L227.492931,8.11786122 Z" id="Fill-6" fill="#555555"></path>
                    <mask id="mask-2" fill="white">
                        <use xlink:href="#path-1"></use>
                    </mask>
                    <g id="Clip-9"></g>
                    <path d="M235.381224,25.3061224 L246.596898,25.3061224 L246.596898,20.7012245 L235.381224,20.7012245 L235.381224,25.3061224 Z M248.785469,28.3152653 L246.596898,28.3152653 L246.596898,27.3805714 L235.381224,27.3805714 L235.381224,28.3152653 L233.192816,28.3152653 L233.192816,18.6267755 L248.785469,18.6267755 L248.785469,28.3152653 Z M231.300735,14.4550204 C233.033143,14.0675918 235.426776,11.6284082 238.481469,7.16032653 L240.738449,7.9355102 C238.891918,10.4886531 237.022531,12.6315102 235.107592,14.3640816 C238.98302,14.2272653 242.721633,13.9763265 246.346122,13.6346122 C245.616653,12.5402449 244.86449,11.5371429 244.112163,10.5797551 L246.07249,9.64522449 C247.919184,11.9247347 249.674449,14.4324898 251.338449,17.1906939 L249.218449,18.2393469 C248.671347,17.2819592 248.147102,16.3929796 247.622857,15.549551 C242.858449,15.9596735 237.546939,16.2788571 231.71102,16.5067755 L231.300735,14.4550204 Z" id="Fill-8" fill="#555555" mask="url(#mask-2)"></path>
                    <path d="M27.3875429,21.3210122 C27.076849,22.1161143 26.6192163,22.9750531 26.1215837,23.6669714 L33.220849,28.7126857 C34.1891755,27.3526857 34.9152163,25.9943184 35.5171755,24.4338286 L27.3875429,21.3210122 Z" id="Fill-10" fill="#20E2DD" mask="url(#mask-2)"></path>
                    <path d="M24.8900082,1.66524082 L22.0033143,7.85185306 C22.7701714,8.21266939 23.5971102,8.74181224 24.2519673,9.28173061 L28.5838857,3.9994449 C27.4539265,3.07046531 26.2124571,2.28581224 24.8900082,1.66524082" id="Fill-11" fill="#20E2DD" mask="url(#mask-2)"></path>
                    <path d="M27.3841959,13.6274449 L35.4650122,10.4406694 C34.8424816,8.83985306 34.0855837,7.48393469 33.1126857,6.1394449 L26.097502,11.2535673 C26.5938286,11.9389551 27.0669714,12.8109551 27.3841959,13.6274449" id="Fill-12" fill="#20E2DD" mask="url(#mask-2)"></path>
                    <path d="M34.8281469,15.4217796 L28.0341878,16.247902 C28.1336163,17.113698 28.1135347,18.0926367 27.9950041,18.9282286 L34.7961469,19.8328816 C34.991249,18.3927184 35.0080653,16.9125551 34.8281469,15.4217796" id="Fill-13" fill="#20E2DD" mask="url(#mask-2)"></path>
                </g>
                <g id="Group-11" transform="translate(0.000000, 0.015020)">
                    <mask id="mask-4" fill="white">
                        <use xlink:href="#path-3"></use>
                    </mask>
                    <g id="Clip-16"></g>
                    <path d="M17.461551,-9.91207116e-13 C16.0173061,0.00195918367 14.5498776,0.184326531 13.0870204,0.564081633 L13.0870204,0.564081633 C5.23559184,2.60212245 0.0225306122,9.66514286 8.8817842e-15,17.4132245 L8.8817842e-15,17.4132245 L8.8817842e-15,17.5155918 C0.00424489796,18.9524898 0.186938776,20.4117551 0.564734694,21.8666122 L0.564734694,21.8666122 C2.60506122,29.7266939 9.68408163,34.9425306 17.4421224,34.9537959 L17.4421224,34.9537959 L17.4966531,34.9537959 C18.9405714,34.9513469 20.4052245,34.7686531 21.8675918,34.3890612 L21.8675918,34.3890612 C24.4096327,33.7291429 26.6739592,32.5412245 28.576,30.9750204 L28.576,30.9750204 L24.2365714,25.7075918 C23.0786939,26.659102 21.700898,27.380898 20.1549388,27.7823673 L20.1549388,27.7823673 C14.4636735,29.2595918 8.65240816,25.8435918 7.17485714,20.1523265 L7.17485714,20.1523265 C5.69763265,14.460898 9.11363265,8.64963265 14.804898,7.1722449 L14.804898,7.1722449 C16.365551,6.76718367 17.9348571,6.73061224 19.4218776,7.00767347 L19.4218776,7.00767347 L20.6581224,0.292734694 C19.6261224,0.100897959 18.5696327,0.000979591836 17.5004082,-9.91207116e-13 L17.5004082,-9.91207116e-13 L17.461551,-9.91207116e-13 Z" id="Fill-15" fill="url(#linearGradient-5)" mask="url(#mask-4)"></path>
                </g>
                <g id="Group-20" transform="translate(0.000000, 0.015020)">
                    <path d="M52.1948571,19.6746122 L52.1948571,14.5787755 L47.4165714,14.5787755 L47.424898,14.5513469 L48.6077551,10.6075102 L52.2461224,10.6075102 L52.2466122,10.6285714 L52.2866122,12.9265306 L55.2115102,12.9265306 L55.1979592,12.9567347 L52.1948571,19.6746122 Z M49.5137143,25.8806531 L48.216898,25.8806531 L48.216898,16.5456327 L50.264898,16.5456327 L50.264898,25.1577143 C50.264898,25.4262857 50.1066939,25.8806531 49.5137143,25.8806531 L49.5137143,25.8806531 Z M58.924,28.0093061 L63.2490612,28.0093061 C63.6609796,28.0093061 64.039102,27.9469388 64.3724898,27.8244898 C65.0856327,27.5617959 65.9622041,26.9485714 66.0892245,25.5178776 L66.0887347,24.1133061 L64.0381224,24.1133061 L64.0239184,25.2971429 C64.0139592,25.5250612 63.8673469,25.9093878 63.3811429,25.9093878 L62.1166531,25.9314286 L62.1303673,25.9005714 L66.126449,16.980898 L64.1083265,16.0248163 L62.8586939,18.9133061 L61.5595918,18.9133061 L61.5724898,18.8835918 L64.1071837,12.9265306 L66.4843265,12.9265306 L66.4843265,10.8063673 L63.4031837,10.8063673 L63.481551,10.6261224 C63.8645714,9.74514286 64.6306122,7.9397551 64.6629388,7.86318367 L64.7106122,7.75102041 L62.8283265,6.88 L61.2986939,10.4604082 L62.2539592,10.8063673 L57.1682449,10.8063673 L58.015102,10.4840816 L56.4650612,6.88310204 L54.5200816,7.71706122 L55.9329796,10.8063673 L53.0764898,10.8063673 L53.0764898,8.52 L44.5342857,8.52 L44.5342857,10.6075102 L46.4113469,10.6075102 L46.4026939,10.6352653 L42.7204082,22.5660408 L44.791102,23.3325714 L46.1447347,18.8194286 L46.1359184,27.955102 L49.4271837,27.955102 C50.2908571,27.955102 50.9734694,27.7053061 51.4557551,27.212898 C52.2116735,26.4408163 52.1958367,25.3724082 52.1948571,25.3271837 L52.1948571,20.9242449 L55.3292245,20.9242449 L55.3163265,20.9542857 L52.2645714,28.0093061 L56.5894694,28.0093061 C57.001551,28.0093061 57.3795102,27.9469388 57.7127347,27.8244898 C58.4260408,27.5616327 59.3029388,26.9480816 59.4296327,25.5178776 L59.4291429,24.1133061 L57.3785306,24.1133061 L57.3644898,25.2971429 C57.3538776,25.5250612 57.2066122,25.9093878 56.7217143,25.9093878 L55.4572245,25.9314286 L55.471102,25.9005714 L59.4668571,16.980898 L57.448898,16.0248163 L56.1992653,18.9133061 L54.8663673,18.9133061 L54.8797551,18.8832653 L57.5199184,12.9265306 L61.7989388,12.9265306 L61.7858776,12.9565714 L58.3347755,20.9242449 L61.9886531,20.9242449 L61.9755918,20.9542857 L58.924,28.0093061 Z" id="Fill-18" fill="#464B60"></path>
                    <path d="M94.1510041,28.0341388 L98.0114122,28.0341388 C100.325535,28.0341388 102.071004,26.2886694 102.071004,23.9743837 L102.071004,18.2467102 L93.1485551,18.2467102 L93.1485551,14.9147918 L102.071004,14.9147918 L102.071004,7.05862857 L90.5227592,7.05862857 L90.5227592,9.40491429 L99.6969633,9.40491429 L99.6969633,12.5126694 L90.6626776,12.5126694 L90.6626776,20.676751 L99.7248816,20.676751 L99.7253714,24.0421388 C99.6861878,24.9102204 98.9781061,25.5894041 98.1136163,25.5894041 L94.1510041,25.5894041 L94.1510041,28.0341388 Z" id="Fill-20" fill="#464B60"></path>
                    <mask id="mask-7" fill="white">
                        <use xlink:href="#path-6"></use>
                    </mask>
                    <g id="Clip-23"></g>
                    <polygon id="Fill-22" fill="#464B60" mask="url(#mask-7)" points="106.454694 28.0752653 108.857796 28.0752653 108.857796 7.05861224 106.454694 7.05861224"></polygon>
                    <polygon id="Fill-24" fill="#464B60" mask="url(#mask-7)" points="118.392555 10.208098 120.494269 10.208098 120.494269 9.47356735 122.731004 9.47356735 122.731004 7.62817959 120.494269 7.62817959 120.494269 6.89348571 118.392555 6.89348571 118.392555 7.62817959 116.276963 7.62817959 116.276963 6.89348571 114.207086 6.89348571 114.207086 7.62817959 111.746841 7.62817959 111.746841 9.47356735 114.207086 9.47356735 114.207086 10.208098 116.276963 10.208098 116.276963 9.47356735 118.392555 9.47356735"></polygon>
                    <path d="M127.568898,12.343298 L127.466204,12.2471347 C126.646939,11.4776653 126.025388,10.7366041 125.648082,10.2505633 L125.606776,10.197502 L125.626694,10.133502 C125.675837,9.97301224 125.721878,9.81497143 125.763347,9.66378776 L125.789796,9.56925714 L129.024408,9.56925714 L128.973633,9.73562449 C128.784571,10.3511347 128.402531,11.2841959 127.655265,12.2327673 L127.568898,12.343298 Z M115.428327,15.0505633 L115.428327,13.0650939 L116.668327,13.0650939 L116.668163,13.0864816 L116.662286,14.2923592 C116.464082,14.9160327 115.888082,15.0316245 115.562367,15.0450122 L115.428327,15.0505633 Z M118.575429,15.2546449 L118.536898,15.2546449 L118.557143,15.2219918 C118.613959,15.1307265 118.652,14.8185633 118.652163,14.8154612 L118.652327,14.8149714 C118.680082,14.6107265 118.692,14.0443592 118.691184,12.9782367 L118.691184,12.8495837 L119.872408,12.8495837 C120.015755,12.8495837 120.132327,12.9661551 120.132327,13.1098286 L120.133143,14.4699918 C120.09902,14.9403592 119.756163,15.1816653 119.446939,15.2513796 L119.435347,15.2541551 L118.575429,15.2546449 Z M118.146857,16.0066449 L118.217388,16.2314612 C118.345878,16.6404408 118.46702,17.0076245 118.469796,17.0156245 L118.497714,17.1019918 L119.737714,17.1016653 C122.064082,16.855298 122.173306,14.4286857 122.174122,14.4043592 L122.174122,14.3589714 C122.172816,14.1661551 122.169224,13.4502367 122.167429,12.7065633 L122.166939,12.6551347 L122.166612,12.2646041 C122.166122,11.9465633 122.166122,11.6415837 122.166939,11.3899918 C122.167592,11.2174204 122.101143,11.0551347 121.979347,10.9326857 C121.857224,10.8102367 121.694776,10.7426449 121.521714,10.7426449 L113.742776,10.7426449 L113.737878,10.7398694 L112.976082,10.2827265 L111.411673,12.8824 L111.614612,12.8961143 C111.632245,12.8970939 111.838939,12.9036245 113.370694,12.9428082 L113.496408,12.9459102 L113.496408,17.0456653 L116.400245,17.0430531 C117.068816,16.9416653 117.606612,16.6536653 117.995673,16.1877061 L118.146857,16.0066449 Z M127.683673,15.2489306 L127.760571,15.3046041 C129.812,16.7826449 131.577388,17.1686041 131.772,17.2076245 L131.896735,17.237502 L132.415755,15.1217469 L132.303755,15.0871347 C131.444163,14.8216653 130.429469,14.4616653 129.41902,13.8019102 L129.298367,13.7228898 L129.389796,13.6118694 C130.346041,12.4536653 130.981306,11.1281143 131.278449,9.67244082 L131.29951,9.56925714 L132.011837,9.56925714 L132.011837,7.72370612 L126.160082,7.72370612 L126.177224,7.57986939 C126.191755,7.45513469 126.205143,7.32517551 126.216571,7.19358367 L126.226531,7.07684898 L124.116163,6.77203265 L124.097388,6.89382857 C124.096082,6.90199184 123.958286,7.7859102 123.678612,8.90117551 C123.424082,9.91505306 122.996816,11.332849 122.406122,12.3299102 L122.294286,12.5189714 L123.988327,13.7903184 L124.060816,13.676849 C124.086939,13.6355429 124.326286,13.2533388 124.646122,12.6001143 L124.734286,12.4205224 L124.861469,12.5748082 C125.186694,12.9695837 125.53298,13.351298 125.890857,13.708849 L126.000735,13.8185633 L125.872571,13.9059102 C125.025061,14.4866449 124.040245,14.8463184 123.102449,15.148849 L122.984571,15.1868898 L123.631755,17.2025633 L123.746857,17.1713796 C123.953061,17.1233796 125.80498,16.6641143 127.607918,15.3059102 L127.683673,15.2489306 Z" id="Fill-25" fill="#464B60" mask="url(#mask-7)"></path>
                    <path d="M117.629159,28.1817796 L120.765649,28.1817796 C120.772016,28.1816163 121.42018,28.1750857 122.06622,27.8250449 C122.902955,27.3716571 123.327282,26.575902 123.327282,25.4599837 L123.327282,25.3313306 L123.348669,25.3313306 L132.011853,25.3280653 L132.011853,23.5329633 L123.327282,23.5329633 L123.327282,22.5339429 L130.728098,22.5339429 L130.728098,20.831249 L123.327282,20.831249 L123.327282,19.8149224 L127.928751,19.8147592 C129.912914,19.7316571 130.835363,18.9243102 130.873731,18.8898612 L130.958955,18.8137796 L129.776098,17.241698 L129.674873,17.3422694 C128.98622,18.0279837 127.918139,17.9661061 127.907363,17.9652898 L112.981649,17.9656163 L112.981649,19.8149224 L121.233894,19.8149224 L121.233894,20.831249 L113.496424,20.831249 L113.496424,22.5339429 L121.233894,22.5339429 L121.233894,23.5329633 L111.746873,23.5329633 L111.746873,25.3280653 L121.233894,25.3280653 L121.233894,25.4570449 C121.233894,25.511902 121.224424,25.7972898 121.038792,25.9865143 C120.925486,26.1016163 120.764343,26.159902 120.559608,26.159902 L117.631118,26.159902 L117.629159,28.1817796 Z" id="Fill-26" fill="#464B60" mask="url(#mask-7)"></path>
                    <path d="M69.5744816,25.5011429 L69.5744816,27.9251429 C72.4611755,27.4430204 75.2504,25.6696327 76.5209306,23.5071837 C77.6337469,21.6131429 78.2779918,19.2462857 78.2779918,12.753551 L78.2779918,12.6247347 L84.9220735,12.6247347 L84.9220735,23.5017959 C84.9220735,24.8701224 84.3130939,25.3548571 82.5953796,25.3548571 L79.4654204,25.3548571 L79.4654204,27.8075918 L83.071951,27.8075918 C86.3979918,27.8075918 87.5767673,26.7437551 87.5767673,23.7429388 L87.5767673,10.3339592 L78.2779918,10.3339592 L78.2779918,7.12302041 L75.8281959,7.13102041 L75.8281959,10.3181224 L75.8068082,10.3181224 L69.4877878,10.3337959 L69.4877878,12.6247347 L75.8281959,12.6247347 L75.8281959,12.753551 C75.8281959,17.4802449 75.404849,20.039102 74.3184816,21.8800816 C73.3134204,23.5832653 71.540849,24.9359184 69.5744816,25.5011429" id="Fill-27" fill="#464B60" mask="url(#mask-7)"></path>
                </g>
            </g>
        </g>
    </g>
</svg>